<svg viewBox="0 0 63 10" fill="currentColor" xmlns="http://www.w3.org/2000/svg">
<path d="M2.64205 9L0.255682 0.272727H1.32955L3.15341 7.38068H3.23864L5.09659 0.272727H6.28977L8.14773 7.38068H8.23295L10.0568 0.272727H11.1307L8.74432 9H7.65341L5.72727 2.04545H5.65909L3.73295 9H2.64205ZM14.3608 9.13636C13.7699 9.13636 13.2514 8.99574 12.8054 8.71449C12.3622 8.43324 12.0156 8.03977 11.7656 7.53409C11.5185 7.02841 11.3949 6.4375 11.3949 5.76136C11.3949 5.07955 11.5185 4.48437 11.7656 3.97585C12.0156 3.46733 12.3622 3.07244 12.8054 2.79119C13.2514 2.50994 13.7699 2.36932 14.3608 2.36932C14.9517 2.36932 15.4688 2.50994 15.9119 2.79119C16.358 3.07244 16.7045 3.46733 16.9517 3.97585C17.2017 4.48437 17.3267 5.07955 17.3267 5.76136C17.3267 6.4375 17.2017 7.02841 16.9517 7.53409C16.7045 8.03977 16.358 8.43324 15.9119 8.71449C15.4688 8.99574 14.9517 9.13636 14.3608 9.13636ZM14.3608 8.23295C14.8097 8.23295 15.179 8.1179 15.4688 7.88778C15.7585 7.65767 15.973 7.35511 16.1122 6.98011C16.2514 6.60511 16.321 6.19886 16.321 5.76136C16.321 5.32386 16.2514 4.91619 16.1122 4.53835C15.973 4.16051 15.7585 3.85511 15.4688 3.62216C15.179 3.3892 14.8097 3.27273 14.3608 3.27273C13.9119 3.27273 13.5426 3.3892 13.2528 3.62216C12.9631 3.85511 12.7486 4.16051 12.6094 4.53835C12.4702 4.91619 12.4006 5.32386 12.4006 5.76136C12.4006 6.19886 12.4702 6.60511 12.6094 6.98011C12.7486 7.35511 12.9631 7.65767 13.2528 7.88778C13.5426 8.1179 13.9119 8.23295 14.3608 8.23295ZM18.8619 9V2.45455H19.8335V3.44318H19.9016C20.021 3.11932 20.2369 2.85653 20.5494 2.65483C20.8619 2.45312 21.2141 2.35227 21.6062 2.35227C21.68 2.35227 21.7724 2.35369 21.8832 2.35653C21.994 2.35937 22.0778 2.36364 22.1346 2.36932V3.39205C22.1005 3.38352 22.0224 3.37074 21.9002 3.35369C21.7809 3.33381 21.6545 3.32386 21.521 3.32386C21.2028 3.32386 20.9187 3.39062 20.6687 3.52415C20.4215 3.65483 20.2255 3.83665 20.0806 4.0696C19.9386 4.29972 19.8675 4.5625 19.8675 4.85795V9H18.8619ZM24.2642 6.61364L24.2472 5.36932H24.4517L27.3153 2.45455H28.5597L25.5085 5.53977H25.4233L24.2642 6.61364ZM23.3267 9V0.272727H24.3324V9H23.3267ZM27.4858 9L24.929 5.76136L25.6449 5.0625L28.7642 9H27.4858ZM32.3288 9.13636C31.6982 9.13636 31.1541 8.99716 30.6967 8.71875C30.2422 8.4375 29.8913 8.04545 29.6442 7.54261C29.3999 7.03693 29.2777 6.44886 29.2777 5.77841C29.2777 5.10795 29.3999 4.51705 29.6442 4.00568C29.8913 3.49148 30.2351 3.09091 30.6754 2.80398C31.1186 2.5142 31.6357 2.36932 32.2266 2.36932C32.5675 2.36932 32.9041 2.42614 33.2365 2.53977C33.5689 2.65341 33.8714 2.83807 34.1442 3.09375C34.4169 3.34659 34.6342 3.68182 34.7962 4.09943C34.9581 4.51705 35.0391 5.03125 35.0391 5.64205V6.06818H29.9936V5.19886H34.0163C34.0163 4.82955 33.9425 4.5 33.7947 4.21023C33.6499 3.92045 33.4425 3.69176 33.1726 3.52415C32.9055 3.35653 32.5902 3.27273 32.2266 3.27273C31.826 3.27273 31.4794 3.37216 31.1868 3.57102C30.897 3.76705 30.674 4.02273 30.5178 4.33807C30.3615 4.65341 30.2834 4.99148 30.2834 5.35227V5.93182C30.2834 6.42614 30.3686 6.84517 30.5391 7.18892C30.7124 7.52983 30.9524 7.78977 31.2592 7.96875C31.5661 8.14489 31.9226 8.23295 32.3288 8.23295C32.593 8.23295 32.8317 8.19602 33.0447 8.12216C33.2607 8.04545 33.4467 7.93182 33.603 7.78125C33.7592 7.62784 33.88 7.4375 33.9652 7.21023L34.9368 7.48295C34.8345 7.8125 34.6626 8.10227 34.4212 8.35227C34.1797 8.59943 33.8814 8.79261 33.5263 8.93182C33.1712 9.06818 32.772 9.13636 32.3288 9.13636ZM36.5689 9V2.45455H37.5405V3.44318H37.6087C37.728 3.11932 37.9439 2.85653 38.2564 2.65483C38.5689 2.45312 38.9212 2.35227 39.3132 2.35227C39.3871 2.35227 39.4794 2.35369 39.5902 2.35653C39.701 2.35937 39.7848 2.36364 39.8416 2.36932V3.39205C39.8075 3.38352 39.7294 3.37074 39.6072 3.35369C39.4879 3.33381 39.3615 3.32386 39.228 3.32386C38.9098 3.32386 38.6257 3.39062 38.3757 3.52415C38.1286 3.65483 37.9325 3.83665 37.7876 4.0696C37.6456 4.29972 37.5746 4.5625 37.5746 4.85795V9H36.5689ZM41.1701 9V0.272727H42.2269V4.15909H46.8803V0.272727H47.9371V9H46.8803V5.09659H42.2269V9H41.1701ZM54.0415 6.32386V2.45455H55.0472V9H54.0415V7.89205H53.9734C53.82 8.22443 53.5813 8.5071 53.2575 8.74006C52.9336 8.97017 52.5245 9.08523 52.0302 9.08523C51.6211 9.08523 51.2575 8.99574 50.9393 8.81676C50.6211 8.63494 50.3711 8.36222 50.1893 7.99858C50.0075 7.6321 49.9165 7.17045 49.9165 6.61364V2.45455H50.9222V6.54545C50.9222 7.02273 51.0558 7.40341 51.3228 7.6875C51.5927 7.97159 51.9364 8.11364 52.354 8.11364C52.604 8.11364 52.8583 8.04972 53.1168 7.92188C53.3782 7.79403 53.5969 7.59801 53.7731 7.33381C53.9521 7.0696 54.0415 6.73295 54.0415 6.32386ZM57.0256 9V0.272727H58.0312V3.49432H58.1165C58.1903 3.38068 58.2926 3.2358 58.4233 3.05966C58.5568 2.88068 58.7472 2.72159 58.9943 2.58239C59.2443 2.44034 59.5824 2.36932 60.0085 2.36932C60.5597 2.36932 61.0455 2.5071 61.4659 2.78267C61.8864 3.05824 62.2145 3.44886 62.4503 3.95455C62.6861 4.46023 62.804 5.05682 62.804 5.74432C62.804 6.4375 62.6861 7.03835 62.4503 7.54688C62.2145 8.05256 61.8878 8.4446 61.4702 8.72301C61.0526 8.99858 60.571 9.13636 60.0256 9.13636C59.6051 9.13636 59.2685 9.06676 59.0156 8.92756C58.7628 8.78551 58.5682 8.625 58.4318 8.44602C58.2955 8.2642 58.1903 8.11364 58.1165 7.99432H57.9972V9H57.0256ZM58.0142 5.72727C58.0142 6.22159 58.0866 6.65767 58.2315 7.03551C58.3764 7.41051 58.5881 7.70455 58.8665 7.91761C59.1449 8.12784 59.4858 8.23295 59.8892 8.23295C60.3097 8.23295 60.6605 8.12216 60.9418 7.90057C61.2259 7.67614 61.4389 7.375 61.581 6.99716C61.7259 6.61648 61.7983 6.19318 61.7983 5.72727C61.7983 5.26705 61.7273 4.85227 61.5852 4.48295C61.446 4.1108 61.2344 3.81676 60.9503 3.60085C60.669 3.3821 60.3153 3.27273 59.8892 3.27273C59.4801 3.27273 59.1364 3.37642 58.858 3.58381C58.5795 3.78835 58.3693 4.07528 58.2273 4.4446C58.0852 4.81108 58.0142 5.23864 58.0142 5.72727Z" fill="currentColor"/>
</svg>
